<?xml version="1.0" standalone="no"?>
 <!DOCTYPE svg PUBLIC "-//W3C//DTD SVG 1.1//EN" 
 "http://www.w3.org/Graphics/SVG/1.1/DTD/svg11.dtd"> 
<svg
  xmlns:svg="http://www.w3.org/2000/svg"
  xmlns="http://www.w3.org/2000/svg"
  xmlns:xlink="http://www.w3.org/1999/xlink"
  version="1.1"
  width="297.0022mm" height="210.0072mm" viewBox="0.0000 0.0000 297.0022 210.0072">
<title>SVG Image created as diagrams.svg date 2024/01/14 22:12:47 </title>
  <desc>Image generated by Eeschema-SVG </desc>
<g style="fill:#000000; fill-opacity:1.0000;stroke:#000000; stroke-opacity:1.0000;
stroke-linecap:round; stroke-linejoin:round;"
 transform="translate(0 0) scale(1 1)">
</g>
<g style="fill:#000000; fill-opacity:0.0; 
stroke:#000000; stroke-width:0.1524; stroke-opacity:1; 
stroke-linecap:round; stroke-linejoin:round;">
</g>
<g style="fill:#000000; fill-opacity:0.0; 
stroke:#000000; stroke-width:0.1588; stroke-opacity:1; 
stroke-linecap:round; stroke-linejoin:round;">
</g>
<g style="fill:#000000; fill-opacity:0.0; 
stroke:#000000; stroke-width:0.1524; stroke-opacity:1; 
stroke-linecap:round; stroke-linejoin:round;">
</g>
<g style="fill:#000000; fill-opacity:0.0; 
stroke:#000000; stroke-width:0.1588; stroke-opacity:1; 
stroke-linecap:round; stroke-linejoin:round;">
</g>
<g style="fill:#000000; fill-opacity:0.0; 
stroke:#000000; stroke-width:0.1524; stroke-opacity:1; 
stroke-linecap:round; stroke-linejoin:round;">
<g >
</g>
<g style="fill:#000000; fill-opacity:0.0; 
stroke:#000000; stroke-width:0.2540; stroke-opacity:1; 
stroke-linecap:round; stroke-linejoin:round;">
<path style="fill:#000000; fill-opacity:0.0; 
stroke:#000000; stroke-width:0.2540; stroke-opacity:1; 
stroke-linecap:round; stroke-linejoin:round;fill:none"
d="M 34.2900,27.9400
34.2900,25.4000
" /> 
</g>
<g style="fill:#000000; fill-opacity:0.0; 
stroke:#000000; stroke-width:0.1524; stroke-opacity:1; 
stroke-linecap:round; stroke-linejoin:round;">
<path style="fill:#000000; fill-opacity:0.0; 
stroke:#000000; stroke-width:0.1524; stroke-opacity:1; 
stroke-linecap:round; stroke-linejoin:round;fill:none"
d="M 31.7500,26.6700
34.2900,26.6700
" /> 
</g>
<g style="fill:#000000; fill-opacity:0.0; 
stroke:#000000; stroke-width:0.2540; stroke-opacity:1; 
stroke-linecap:round; stroke-linejoin:round;">
<path style="fill:#000000; fill-opacity:0.0; 
stroke:#000000; stroke-width:0.2540; stroke-opacity:1; 
stroke-linecap:round; stroke-linejoin:round;fill:none"
d="M 31.7500,27.9400
31.7500,25.4000
34.2900,26.6700
Z" /> 
</g>
<g style="fill:#000000; fill-opacity:0.0; 
stroke:#000000; stroke-width:0.1524; stroke-opacity:1; 
stroke-linecap:round; stroke-linejoin:round;">
<path d="M34.2900 26.6700
L36.8300 26.6700
" />
<path d="M31.7500 26.6700
L29.2100 26.6700
" />
<text x="33.0199" y="20.9550"
textLength="2.6827" font-size="1.6933" lengthAdjust="spacingAndGlyphs"
text-anchor="middle" opacity="0">D1</text>
<g class="stroked-text"><desc>D1</desc>
<path d="M32.0825 20.8995
L32.0825 19.6295
" />
<path d="M32.0825 19.6295
L32.3849 19.6295
" />
<path d="M32.3849 19.6295
L32.5663 19.6900
" />
<path d="M32.5663 19.6900
L32.6873 19.8110
" />
<path d="M32.6873 19.8110
L32.7478 19.9319
" />
<path d="M32.7478 19.9319
L32.8082 20.1738
" />
<path d="M32.8082 20.1738
L32.8082 20.3552
" />
<path d="M32.8082 20.3552
L32.7478 20.5971
" />
<path d="M32.7478 20.5971
L32.6873 20.7181
" />
<path d="M32.6873 20.7181
L32.5663 20.8391
" />
<path d="M32.5663 20.8391
L32.3849 20.8995
" />
<path d="M32.3849 20.8995
L32.0825 20.8995
" />
<path d="M34.0178 20.8995
L33.2921 20.8995
" />
<path d="M33.6549 20.8995
L33.6549 19.6295
" />
<path d="M33.6549 19.6295
L33.5340 19.8110
" />
<path d="M33.5340 19.8110
L33.4130 19.9319
" />
<path d="M33.4130 19.9319
L33.2921 19.9924
" />
</g><text x="33.0200" y="23.4950"
textLength="1.4732" font-size="1.6933" lengthAdjust="spacingAndGlyphs"
text-anchor="middle" opacity="0">D</text>
<g class="stroked-text"><desc>D</desc>
<path d="M32.6873 23.4395
L32.6873 22.1695
" />
<path d="M32.6873 22.1695
L32.9897 22.1695
" />
<path d="M32.9897 22.1695
L33.1711 22.2300
" />
<path d="M33.1711 22.2300
L33.2921 22.3510
" />
<path d="M33.2921 22.3510
L33.3526 22.4719
" />
<path d="M33.3526 22.4719
L33.4130 22.7138
" />
<path d="M33.4130 22.7138
L33.4130 22.8952
" />
<path d="M33.4130 22.8952
L33.3526 23.1371
" />
<path d="M33.3526 23.1371
L33.2921 23.2581
" />
<path d="M33.2921 23.2581
L33.1711 23.3791
" />
<path d="M33.1711 23.3791
L32.9897 23.4395
" />
<path d="M32.9897 23.4395
L32.6873 23.4395
" />
</g></g>
</g>
<g style="fill:#000000; fill-opacity:0.0; 
stroke:#000000; stroke-width:0.1588; stroke-opacity:1; 
stroke-linecap:round; stroke-linejoin:round;">
</g>
<g style="fill:#000000; fill-opacity:0.0; 
stroke:#000000; stroke-width:0.1524; stroke-opacity:1; 
stroke-linecap:round; stroke-linejoin:round;">
<text x="25.2095" y="27.3050"
textLength="7.8835" font-size="1.6933" lengthAdjust="spacingAndGlyphs"
text-anchor="end" opacity="0">Cathode</text>
<g class="stroked-text"><desc>Cathode</desc>
<path d="M18.4570 27.1286
L18.3966 27.1891
" />
<path d="M18.3966 27.1891
L18.2151 27.2495
" />
<path d="M18.2151 27.2495
L18.0942 27.2495
" />
<path d="M18.0942 27.2495
L17.9128 27.1891
" />
<path d="M17.9128 27.1891
L17.7918 27.0681
" />
<path d="M17.7918 27.0681
L17.7313 26.9471
" />
<path d="M17.7313 26.9471
L17.6709 26.7052
" />
<path d="M17.6709 26.7052
L17.6709 26.5238
" />
<path d="M17.6709 26.5238
L17.7313 26.2819
" />
<path d="M17.7313 26.2819
L17.7918 26.1610
" />
<path d="M17.7918 26.1610
L17.9128 26.0400
" />
<path d="M17.9128 26.0400
L18.0942 25.9795
" />
<path d="M18.0942 25.9795
L18.2151 25.9795
" />
<path d="M18.2151 25.9795
L18.3966 26.0400
" />
<path d="M18.3966 26.0400
L18.4570 26.1005
" />
<path d="M19.5456 27.2495
L19.5456 26.5843
" />
<path d="M19.5456 26.5843
L19.4851 26.4633
" />
<path d="M19.4851 26.4633
L19.3642 26.4029
" />
<path d="M19.3642 26.4029
L19.1223 26.4029
" />
<path d="M19.1223 26.4029
L19.0013 26.4633
" />
<path d="M19.5456 27.1891
L19.4247 27.2495
" />
<path d="M19.4247 27.2495
L19.1223 27.2495
" />
<path d="M19.1223 27.2495
L19.0013 27.1891
" />
<path d="M19.0013 27.1891
L18.9409 27.0681
" />
<path d="M18.9409 27.0681
L18.9409 26.9471
" />
<path d="M18.9409 26.9471
L19.0013 26.8262
" />
<path d="M19.0013 26.8262
L19.1223 26.7657
" />
<path d="M19.1223 26.7657
L19.4247 26.7657
" />
<path d="M19.4247 26.7657
L19.5456 26.7052
" />
<path d="M19.9689 26.4029
L20.4527 26.4029
" />
<path d="M20.1503 25.9795
L20.1503 27.0681
" />
<path d="M20.1503 27.0681
L20.2108 27.1891
" />
<path d="M20.2108 27.1891
L20.3318 27.2495
" />
<path d="M20.3318 27.2495
L20.4527 27.2495
" />
<path d="M20.8760 27.2495
L20.8760 25.9795
" />
<path d="M21.4203 27.2495
L21.4203 26.5843
" />
<path d="M21.4203 26.5843
L21.3598 26.4633
" />
<path d="M21.3598 26.4633
L21.2389 26.4029
" />
<path d="M21.2389 26.4029
L21.0575 26.4029
" />
<path d="M21.0575 26.4029
L20.9365 26.4633
" />
<path d="M20.9365 26.4633
L20.8760 26.5238
" />
<path d="M22.2065 27.2495
L22.0855 27.1891
" />
<path d="M22.0855 27.1891
L22.0250 27.1286
" />
<path d="M22.0250 27.1286
L21.9646 27.0076
" />
<path d="M21.9646 27.0076
L21.9646 26.6448
" />
<path d="M21.9646 26.6448
L22.0250 26.5238
" />
<path d="M22.0250 26.5238
L22.0855 26.4633
" />
<path d="M22.0855 26.4633
L22.2065 26.4029
" />
<path d="M22.2065 26.4029
L22.3879 26.4029
" />
<path d="M22.3879 26.4029
L22.5088 26.4633
" />
<path d="M22.5088 26.4633
L22.5693 26.5238
" />
<path d="M22.5693 26.5238
L22.6298 26.6448
" />
<path d="M22.6298 26.6448
L22.6298 27.0076
" />
<path d="M22.6298 27.0076
L22.5693 27.1286
" />
<path d="M22.5693 27.1286
L22.5088 27.1891
" />
<path d="M22.5088 27.1891
L22.3879 27.2495
" />
<path d="M22.3879 27.2495
L22.2065 27.2495
" />
<path d="M23.7183 27.2495
L23.7183 25.9795
" />
<path d="M23.7183 27.1891
L23.5974 27.2495
" />
<path d="M23.5974 27.2495
L23.3555 27.2495
" />
<path d="M23.3555 27.2495
L23.2345 27.1891
" />
<path d="M23.2345 27.1891
L23.1740 27.1286
" />
<path d="M23.1740 27.1286
L23.1136 27.0076
" />
<path d="M23.1136 27.0076
L23.1136 26.6448
" />
<path d="M23.1136 26.6448
L23.1740 26.5238
" />
<path d="M23.1740 26.5238
L23.2345 26.4633
" />
<path d="M23.2345 26.4633
L23.3555 26.4029
" />
<path d="M23.3555 26.4029
L23.5974 26.4029
" />
<path d="M23.5974 26.4029
L23.7183 26.4633
" />
<path d="M24.8068 27.1891
L24.6859 27.2495
" />
<path d="M24.6859 27.2495
L24.4440 27.2495
" />
<path d="M24.4440 27.2495
L24.3230 27.1891
" />
<path d="M24.3230 27.1891
L24.2626 27.0681
" />
<path d="M24.2626 27.0681
L24.2626 26.5843
" />
<path d="M24.2626 26.5843
L24.3230 26.4633
" />
<path d="M24.3230 26.4633
L24.4440 26.4029
" />
<path d="M24.4440 26.4029
L24.6859 26.4029
" />
<path d="M24.6859 26.4029
L24.8068 26.4633
" />
<path d="M24.8068 26.4633
L24.8673 26.5843
" />
<path d="M24.8673 26.5843
L24.8673 26.7052
" />
<path d="M24.8673 26.7052
L24.2626 26.8262
" />
</g><path style="fill:#000000; fill-opacity:0.0; 
stroke:#000000; stroke-width:0.1524; stroke-opacity:1; 
stroke-linecap:round; stroke-linejoin:round;fill:none"
d="M 26.6700,26.6700
26.0350,26.0350
25.4000,26.0350
25.4000,27.3050
26.0350,27.3050
Z" /> 
</g>
<g style="fill:#000000; fill-opacity:0.0; 
stroke:#000000; stroke-width:0.1588; stroke-opacity:1; 
stroke-linecap:round; stroke-linejoin:round;">
</g>
<g style="fill:#000000; fill-opacity:0.0; 
stroke:#000000; stroke-width:0.1524; stroke-opacity:1; 
stroke-linecap:round; stroke-linejoin:round;">
<text x="40.8305" y="27.3050"
textLength="5.8274" font-size="1.6933" lengthAdjust="spacingAndGlyphs"
text-anchor="start" opacity="0">Anode</text>
<g class="stroked-text"><desc>Anode</desc>
<path d="M41.1726 26.8867
L41.7773 26.8867
" />
<path d="M41.0516 27.2495
L41.4749 25.9795
" />
<path d="M41.4749 25.9795
L41.8983 27.2495
" />
<path d="M42.3216 26.4029
L42.3216 27.2495
" />
<path d="M42.3216 26.5238
L42.3821 26.4633
" />
<path d="M42.3821 26.4633
L42.5031 26.4029
" />
<path d="M42.5031 26.4029
L42.6845 26.4029
" />
<path d="M42.6845 26.4029
L42.8054 26.4633
" />
<path d="M42.8054 26.4633
L42.8659 26.5843
" />
<path d="M42.8659 26.5843
L42.8659 27.2495
" />
<path d="M43.6521 27.2495
L43.5311 27.1891
" />
<path d="M43.5311 27.1891
L43.4706 27.1286
" />
<path d="M43.4706 27.1286
L43.4102 27.0076
" />
<path d="M43.4102 27.0076
L43.4102 26.6448
" />
<path d="M43.4102 26.6448
L43.4706 26.5238
" />
<path d="M43.4706 26.5238
L43.5311 26.4633
" />
<path d="M43.5311 26.4633
L43.6521 26.4029
" />
<path d="M43.6521 26.4029
L43.8335 26.4029
" />
<path d="M43.8335 26.4029
L43.9544 26.4633
" />
<path d="M43.9544 26.4633
L44.0149 26.5238
" />
<path d="M44.0149 26.5238
L44.0754 26.6448
" />
<path d="M44.0754 26.6448
L44.0754 27.0076
" />
<path d="M44.0754 27.0076
L44.0149 27.1286
" />
<path d="M44.0149 27.1286
L43.9544 27.1891
" />
<path d="M43.9544 27.1891
L43.8335 27.2495
" />
<path d="M43.8335 27.2495
L43.6521 27.2495
" />
<path d="M45.1639 27.2495
L45.1639 25.9795
" />
<path d="M45.1639 27.1891
L45.0430 27.2495
" />
<path d="M45.0430 27.2495
L44.8011 27.2495
" />
<path d="M44.8011 27.2495
L44.6801 27.1891
" />
<path d="M44.6801 27.1891
L44.6196 27.1286
" />
<path d="M44.6196 27.1286
L44.5592 27.0076
" />
<path d="M44.5592 27.0076
L44.5592 26.6448
" />
<path d="M44.5592 26.6448
L44.6196 26.5238
" />
<path d="M44.6196 26.5238
L44.6801 26.4633
" />
<path d="M44.6801 26.4633
L44.8011 26.4029
" />
<path d="M44.8011 26.4029
L45.0430 26.4029
" />
<path d="M45.0430 26.4029
L45.1639 26.4633
" />
<path d="M46.2524 27.1891
L46.1315 27.2495
" />
<path d="M46.1315 27.2495
L45.8896 27.2495
" />
<path d="M45.8896 27.2495
L45.7686 27.1891
" />
<path d="M45.7686 27.1891
L45.7082 27.0681
" />
<path d="M45.7082 27.0681
L45.7082 26.5843
" />
<path d="M45.7082 26.5843
L45.7686 26.4633
" />
<path d="M45.7686 26.4633
L45.8896 26.4029
" />
<path d="M45.8896 26.4029
L46.1315 26.4029
" />
<path d="M46.1315 26.4029
L46.2524 26.4633
" />
<path d="M46.2524 26.4633
L46.3129 26.5843
" />
<path d="M46.3129 26.5843
L46.3129 26.7052
" />
<path d="M46.3129 26.7052
L45.7082 26.8262
" />
</g><path style="fill:#000000; fill-opacity:0.0; 
stroke:#000000; stroke-width:0.1524; stroke-opacity:1; 
stroke-linecap:round; stroke-linejoin:round;fill:none"
d="M 39.3700,26.6700
40.0050,27.3050
40.6400,27.3050
40.6400,26.0350
40.0050,26.0350
Z" /> 
<path d="M36.8300 26.6700
L39.3700 26.6700
" />
<path d="M26.6700 26.6700
L29.2100 26.6700
" />
</g> 
</svg>
